<svg xmlns="http://www.w3.org/2000/svg" width="286.436" height="686.473" viewBox="0 0 286.436 686.473">
  <path id="Path_2" data-name="Path 2" d="M58.258,0h58.258l12.941,168.053c0,45.865,37.847,47.374,43.059,112.876S158.594,468.34,129.457,520.77s-19.48-25.7-73.487-30.12C29.345,488.472-8.115,703.2-32.748,685.427c-25-18.039-65.64-237.972-76.388-265.056-21.2-53.422,50.5-86.964,46.388-143.907-1.7-23.509-46.388,37.91-46.388,10.04,0-25.572,33.777-41.331,39.431-97.388s-44.332-75.351-39.431-102.408C-98.716,29.169,39.95,0,58.258,0Z" transform="translate(113.065)" fill="#a0414f"/>
</svg>
